<svg height="147" viewBox="0 0 168 147" width="168" xmlns="http://www.w3.org/2000/svg"><path d="m19.2895078 147h129.4202672v-11.040032h-129.4202672zm135.6211182-64.7894494c-6.451146 13.2247164-17.31918 32.3277094-26.088598 34.7905714-4.705098 1.320646-7.654353-.646273-7.640362-4.450855.011192-3.000955.502268-5.931664 2.388225-7.374539 0 0 9.056229-.054793 9.988014-.866849.927589-.807842 1.657907-6.2744698 1.485821-7.3717293-.170688-1.0958545-9.87329.892138-10.388151-.168593-.513461-1.0565162 2.497353-7.2663586 1.960108-8.3186599-.534448-1.0508964-7.860018.0505779-7.860018.0505779-.949974.456606-1.809007 7.8971774-2.736596 8.6558459-.927588.7614784-7.857219-.2739636-8.721849.5001593-.871625.7797426-2.347652 6.7802491-1.80481 7.5459421.54564.767098 8.22098-.408838 8.853363.408838.745708 2.434764-1.579559 6.552648-4.428081 9.054849-2.067836 1.8194-4.345534 2.89699-7.181465 2.884456-4.3259472-.028209-9.5249193-5.997807-11.1674363-15.392652-1.1500417-6.5709123 1.6047419-19.5792677 4.3441357-25.6865493 5.8999096-13.1291804 2.328065-12.319934 3.9593894-13.3357068 6.6484162-4.145983 17.9305772-7.595115 26.4831382-10.1464891 8.160819-2.4305492 16.12157-4.0771409 23.711566-1.1731264 12.446194 4.7641574 9.586479 20.6709076 4.843606 30.3945092m-78.4770559 19.9473624c-1.6453152 9.394845-6.8428882 15.364443-11.1688359 15.392652-2.8387283.012534-5.1136284-1.065056-7.182864-2.884456-2.8485218-2.502201-5.1709905-6.620085-4.4266813-9.054849.6323831-.817676 8.3077223.35826 8.8533626-.408838.5456402-.765693-.9345838-6.7661995-1.8020119-7.5459421-.8688271-.7741229-7.7956599.2613191-8.7232483-.5001593-.9303866-.7586685-1.7880211-8.1992399-2.7365957-8.6558459 0 0-7.328368-1.1014743-7.8600175-.0505779-.5358467 1.0523013 2.4735691 7.2621437 1.9587086 8.3186599-.5134615 1.060731-10.2188623-.9272615-10.3881506.168593-.1692884 1.0972595.5568328 6.5638873 1.4872194 7.3717293.9303865.812056 9.9880144.866849 9.9880144.866849 1.8831583 1.442875 2.3770327 4.373584 2.3868262 7.374539.0139908 3.804582-2.9338655 5.771501-7.6361651 4.450855-8.772216-2.462862-19.6416493-21.565855-26.0941948-34.7905714-4.74007468-9.7236016-7.60118821-25.6303518 4.8450054-30.3945092 7.5885965-2.9040145 15.5493476-1.2574228 23.7115659 1.1731264 8.5539599 2.5513741 19.834722 6.0005061 26.4845375 10.1464891 1.6313243 1.0157728-1.9419196.2065264 3.9551921 13.3357068 2.7449901 6.1072816 5.4955765 19.115637 4.348333 25.6865493m91.0785479-41.4457806c-1.776829-10.3993786-10.143312-17.6418532-20.378964-18.465149-18.29014-1.4765938-34.071734 8.3481637-51.8162346 11.4938282-1.4200637.2514846-3.3284055-2.7845945-5.053468-4.5168876 8.2321721-6.2281067 7.1129101-18.4370502-2.4148078-23.7083916-.6547683-.7572636-.4169251-7.7875919-.0405733-8.1037038.776488-.6490831 6.8526817.5184235 7.7145135-.2332203.8618317-.7544537.6897452-8.07560504.1371096-8.7780759-.5512366-.69966098-7.3997211.0505779-7.7858665-.42007758-.3875444-.47206041.1888755-7.05983214-.4560992-7.57825563-.4630947-.37090462-2.3616429-.40883804-3.4165473-.40140198-1.0563036-.00743606-2.959049.03049736-3.4207446.40140198-.6463738.51842349-.0671557 7.10619522-.4533011 7.57825563-.3847463.47065548-7.2346299-.2795834-7.7886646.42007758-.5512365.70247086-.7205249 8.0236222.1413069 8.7780759.8618317.7516438 6.9394245-.4158628 7.7131144.2332203.3763518.3161119.6155941 7.3464402-.0405733 8.1037038-9.5263188 5.2713414-10.6455809 17.4802849-2.4162069 23.7083916-1.7236635 1.7322931-3.6334043 4.7683722-5.053468 4.5168876-17.741702-3.1456645-33.5246956-12.970422-51.8176342-11.4938282-10.232853.8232958-18.59653839 8.0657704-20.37756407 18.465149-3.20388753 18.7180385 10.19088067 33.1046418 16.69379297 48.9959376 2.0524467 5.014237 3.8572567 11.755147 3.5326708 17.554747 0 0 53.1481569 0 62.5681458.001405v.001405c0-.001405.2504349-.001405.7191259-.001405.47009 0 .7205249 0 .7205249.001405v-.001405c9.4199889-.001405 62.5667467-.001405 62.5667467-.001405-.325985-5.7996 1.480224-12.54051 3.53407-17.554747 6.501513-15.8912958 19.894882-30.2778991 16.689596-48.9959376" fill="#1d4f91" fill-rule="evenodd"/></svg>